# xmcd
#
# Track frame offsets: 
#        150
#        17881
#        32633
#        48767
#        75028
#        96977
#        114313
#        142061
#        168393
#        195378
#
# Disc length: 2878 seconds
#
# Revision: 3
# Processed by: cddbd v1.5.2PL0 Copyright (c) Steve Scherf et al.
# Submitted via: ExactAudioCopy v1.0b3
#
DISCID=720b3c0a
DTITLE=Big Mike Griffin - Harley In The Rain
DYEAR=1998
DGENRE=Electric Blues
TTITLE0=Harley In The Rain
TTITLE1=Figure Of Speech
TTITLE2=Self Defense
TTITLE3=Willin'
TTITLE4=Shovel Head
TTITLE5=Harley Blues
TTITLE6=You'll Know
TTITLE7=Ain't Superstitious
TTITLE8=Get Outta My Live
TTITLE9=Old Maid
EXTD=
EXTT0=
EXTT1=
EXTT2=
EXTT3=
EXTT4=
EXTT5=
EXTT6=
EXTT7=
EXTT8=
EXTT9=
PLAYORDER=
